<svg width="26" height="26" viewBox="0 0 26 26" fill="none" xmlns="http://www.w3.org/2000/svg">
<g filter="url(#filter0_d_3237_11522)">
<path d="M12.4627 23.9254C10.6637 23.9254 9.18418 22.5578 9.00694 20.8056C7.64261 21.9193 5.6294 21.8401 4.35734 20.568C3.08529 19.296 3.0061 17.2828 4.11977 15.9184C2.36756 15.7412 1 14.2616 1 12.4627C1 10.6637 2.36756 9.18418 4.11978 9.00694C3.0061 7.6426 3.08529 5.6294 4.35735 4.35734C5.6294 3.08529 7.64261 3.0061 9.00694 4.11977C9.18419 2.36755 10.6637 1 12.4627 1C14.2616 1 15.7412 2.36755 15.9184 4.11977C17.2828 3.0061 19.296 3.08529 20.568 4.35734C21.8401 5.6294 21.9193 7.64261 20.8056 9.00694C22.5578 9.18418 23.9254 10.6637 23.9254 12.4627C23.9254 14.2616 22.5578 15.7412 20.8056 15.9184C21.9193 17.2828 21.8401 19.296 20.568 20.568C19.296 21.8401 17.2828 21.9193 15.9184 20.8056C15.7412 22.5578 14.2617 23.9254 12.4627 23.9254Z" fill="#FFEFDF" stroke="#1F1F1F" stroke-width="0.537313" stroke-linecap="round"/>
<path d="M12.4619 21.7763C11.0002 21.7763 9.79809 20.6651 9.65408 19.2415C8.54556 20.1463 6.90983 20.082 5.87628 19.0484C4.84274 18.0149 4.77839 16.3792 5.68325 15.2706C4.25958 15.1266 3.14844 13.9245 3.14844 12.4628C3.14844 11.0012 4.25958 9.79906 5.68326 9.65505C4.7784 8.54653 4.84274 6.9108 5.87628 5.87725C6.90983 4.84371 8.54556 4.77937 9.65408 5.68423C9.79809 4.26055 11.0002 3.14941 12.4619 3.14941C13.9235 3.14941 15.1257 4.26055 15.2697 5.68423C16.3782 4.77937 18.0139 4.84371 19.0475 5.87725C20.081 6.9108 20.1454 8.54653 19.2405 9.65505C20.6642 9.79906 21.7753 11.0012 21.7753 12.4628C21.7753 13.9245 20.6642 15.1266 19.2405 15.2706C20.1454 16.3792 20.081 18.0149 19.0475 19.0484C18.0139 20.082 16.3782 20.1463 15.2697 19.2415C15.1257 20.6651 13.9235 21.7763 12.4619 21.7763Z" fill="url(#paint0_radial_3237_11522)" stroke="#1F1F1F" stroke-width="0.358209" stroke-linecap="round"/>
<ellipse cx="8.89777" cy="10.618" rx="0.80597" ry="0.80597" fill="#1F1F1F"/>
<ellipse cx="15.6693" cy="10.618" rx="0.80597" ry="0.80597" fill="#1F1F1F"/>
<path d="M12.2837 11.585H12.7141C13.2477 11.585 13.4669 11.9638 13.1993 12.4264L12.9833 12.7988L12.7673 13.1711C12.4997 13.6337 12.0629 13.6337 11.7953 13.1711L11.5793 12.7988L11.3633 12.4264C11.1006 11.9638 11.3182 11.585 11.8534 11.585H12.2837Z" fill="#1F1F1F"/>
</g>
<defs>
<filter id="filter0_d_3237_11522" x="0.730469" y="0.731445" width="25.7695" height="25.7686" filterUnits="userSpaceOnUse" color-interpolation-filters="sRGB">
<feFlood flood-opacity="0" result="BackgroundImageFix"/>
<feColorMatrix in="SourceAlpha" type="matrix" values="0 0 0 0 0 0 0 0 0 0 0 0 0 0 0 0 0 0 127 0" result="hardAlpha"/>
<feOffset dx="1.5" dy="1.5"/>
<feComposite in2="hardAlpha" operator="out"/>
<feColorMatrix type="matrix" values="0 0 0 0 0.121569 0 0 0 0 0.121569 0 0 0 0 0.121569 0 0 0 1 0"/>
<feBlend mode="normal" in2="BackgroundImageFix" result="effect1_dropShadow_3237_11522"/>
<feBlend mode="normal" in="SourceGraphic" in2="effect1_dropShadow_3237_11522" result="shape"/>
</filter>
<radialGradient id="paint0_radial_3237_11522" cx="0" cy="0" r="1" gradientUnits="userSpaceOnUse" gradientTransform="translate(12.4619 12.4628) rotate(90) scale(9.31343 9.31344)">
<stop stop-color="#FFA851"/>
<stop offset="1" stop-color="#FFC891"/>
</radialGradient>
</defs>
</svg>
