<svg width="122" height="122" viewBox="0 0 122 122" fill="none" xmlns="http://www.w3.org/2000/svg">
<path d="M61 121C51.5836 121 43.8391 113.842 42.9113 104.67C35.7699 110.499 25.232 110.085 18.5736 103.426C11.9152 96.768 11.5007 86.2301 17.3301 79.0887C8.1583 78.1609 1 70.4164 1 61C1 51.5836 8.15832 43.8391 17.3301 42.9113C11.5007 35.7699 11.9152 25.232 18.5736 18.5736C25.232 11.9152 35.7699 11.5007 42.9113 17.33C43.8391 8.15829 51.5836 1 61 1C70.4164 1 78.161 8.15829 79.0887 17.33C86.2302 11.5007 96.768 11.9152 103.426 18.5736C110.085 25.232 110.499 35.7699 104.67 42.9113C113.842 43.8391 121 51.5836 121 61C121 70.4164 113.842 78.1609 104.67 79.0887C110.499 86.2301 110.085 96.768 103.426 103.426C96.768 110.085 86.2302 110.499 79.0887 104.67C78.161 113.842 70.4165 121 61 121Z" fill="#FFEFDF" stroke="#1F1F1F" stroke-width="1.5" stroke-linecap="round"/>
<path d="M61 109.75C53.3492 109.75 47.0568 103.934 46.303 96.4818C40.5005 101.218 31.9385 100.881 26.5286 95.4714C21.1186 90.0615 20.7818 81.4995 25.5182 75.697C18.0661 74.9432 12.25 68.6508 12.25 61C12.25 53.3491 18.0661 47.0567 25.5182 46.3029C20.7818 40.5005 21.1186 31.9385 26.5286 26.5285C31.9385 21.1186 40.5005 20.7818 46.303 25.5182C47.0568 18.0661 53.3492 12.25 61 12.25C68.6509 12.25 74.9433 18.0661 75.6971 25.5182C81.4995 20.7818 90.0615 21.1186 95.4715 26.5285C100.881 31.9385 101.218 40.5005 96.4819 46.3029C103.934 47.0567 109.75 53.3492 109.75 61C109.75 68.6508 103.934 74.9432 96.4819 75.6971C101.218 81.4995 100.881 90.0615 95.4715 95.4715C90.0615 100.881 81.4995 101.218 75.6971 96.4818C74.9433 103.934 68.6509 109.75 61 109.75Z" fill="url(#paint0_radial_441_6789)" stroke="#1F1F1F" stroke-width="1.5" stroke-linecap="round"/>
<ellipse cx="42.3438" cy="51.3433" rx="4.21875" ry="4.21875" fill="#1F1F1F"/>
<ellipse cx="77.7812" cy="51.3433" rx="4.21875" ry="4.21875" fill="#1F1F1F"/>
<path d="M60.0624 56.4058H62.3152C65.108 56.4058 66.2555 58.3886 64.8549 60.8101L63.7243 62.7592L62.5937 64.7083C61.193 67.1298 58.9065 67.1298 57.5058 64.7083L56.3752 62.7592L55.2446 60.8101C53.8693 58.3886 55.0083 56.4058 57.8096 56.4058H60.0624Z" fill="#1F1F1F"/>
<defs>
<radialGradient id="paint0_radial_441_6789" cx="0" cy="0" r="1" gradientUnits="userSpaceOnUse" gradientTransform="translate(61 61) rotate(90) scale(48.75 48.75)">
<stop stop-color="#FFA851"/>
<stop offset="1" stop-color="#FFC891"/>
</radialGradient>
</defs>
</svg>
